Format                         : MPEG-4
Format profile                 : Base Media / Version 2
Codec ID                       : mp42
File size                      : 700 MiB
Duration                       : 1h 12mn
Overall bit rate mode          : Variable
Overall bit rate               : 1 345 Kbps
Encoded date                   : UTC 2012-06-09 17:29:03
Tagged date                    : UTC 2012-06-09 17:57:04
Writing application            : HandBrake 0.9.5 2011010300

Video
ID                             : 1
Format                         : AVC
Format/Info                    : Advanced Video Codec
Format profile                 : High@L3.0
Format settings, CABAC         : Yes
Format settings, ReFrames      : 4 frames
Codec ID                       : avc1
Codec ID/Info                  : Advanced Video Coding
Duration                       : 1h 12mn
Bit rate mode                  : Variable
Bit rate                       : 894 Kbps
Width                          : 640 pixels
Height                         : 352 pixels
Display aspect ratio           : 16:9
Frame rate mode                : Variable
Frame rate                     : 25.000 fps
Minimum frame rate             : 16.667 fps
Maximum frame rate             : 25.000 fps
Color space                    : YUV
Chroma subsampling             : 4:2:0
Bit depth                      : 8 bits
Scan type                      : Progressive
Bits/(Pixel*Frame)             : 0.159
Stream size                    : 465 MiB (66%)
Writing library                : x264 core 112
Encoded date                   : UTC 2012-06-09 17:29:03
Tagged date                    : UTC 2012-06-09 17:57:04
Color primaries                : BT.601-6 525, BT.1358 525, BT.1700 NTSC, SMPTE 170M
Transfer characteristics       : BT.709-5, BT.1361
Matrix coefficients            : BT.601-6 525, BT.1358 525, BT.1700 NTSC, SMPTE 170M

Audio
ID                             : 2
Format                         : AC-3
Format/Info                    : Audio Coding 3
Mode extension                 : CM (complete main)
Format settings, Endianness    : Big
Codec ID                       : ac-3
Duration                       : 1h 12mn
Bit rate mode                  : Constant
Bit rate                       : 448 Kbps
Channel(s)                     : 6 channels
Channel positions              : Front: L C R, Side: L R, LFE
Sampling rate                  : 48.0 KHz
Bit depth                      : 16 bits
Compression mode               : Lossy
Delay relative to video        : -80ms
Stream size                    : 233 MiB (33%)
Language                       : Swedish
Encoded date                   : UTC 2012-06-09 17:29:03
Tagged date                    : UTC 2012-06-09 17:57:03

